<svg xmlns="http://www.w3.org/2000/svg" xmlns:xlink="http://www.w3.org/1999/xlink" xmlns:lucid="lucid" width="1760" height="1360"><g transform="translate(0 0)" lucid:page-tab-id="0_0"><path d="M873 180c17.67 0 32 17.9 32 40s-14.33 40-32 40h-96c-17.67 0-32-17.9-32-40s14.33-40 32-40z" stroke="#000" stroke-width="2" fill="#fff"/><use xlink:href="#a" transform="matrix(1,0,0,1,750,185) translate(51.26851851851852 39.888888888888886)"/><path d="M731.64 341.33H950L918.36 460H700z" stroke="#000" stroke-width="2" fill="#fff"/><use xlink:href="#b" transform="matrix(1,0,0,1,705,346.33333333333337) translate(37.90740740740739 59.388888888888886)"/><use xlink:href="#c" transform="matrix(1,0,0,1,705,346.33333333333337) translate(99.0185185185185 59.388888888888886)"/><use xlink:href="#d" transform="matrix(1,0,0,1,705,346.33333333333337) translate(119.38888888888889 59.388888888888886)"/><path d="M825 501.33l140 80-140 80-140-80z" stroke="#000" stroke-width="2" fill="#fff"/><use xlink:href="#e" transform="matrix(1,0,0,1,690,506.33333333333337) translate(29.820987654320973 79.88888888888889)"/><use xlink:href="#f" transform="matrix(1,0,0,1,690,506.33333333333337) translate(55.62345679012344 79.88888888888889)"/><use xlink:href="#g" transform="matrix(1,0,0,1,690,506.33333333333337) translate(96.36419753086419 79.88888888888889)"/><use xlink:href="#h" transform="matrix(1,0,0,1,690,506.33333333333337) translate(185.85802469135803 79.88888888888889)"/><path d="M717 720h208l-32 120H685z" stroke="#000" stroke-width="2" fill="#fff"/><use xlink:href="#i" transform="matrix(1,0,0,1,690,725) translate(13.75 47)"/><use xlink:href="#j" transform="matrix(1,0,0,1,690,725) translate(79.30555555555556 47)"/><use xlink:href="#k" transform="matrix(1,0,0,1,690,725) translate(101.86111111111111 47)"/><use xlink:href="#l" transform="matrix(1,0,0,1,690,725) translate(121.80555555555556 47)"/><use xlink:href="#m" transform="matrix(1,0,0,1,690,725) translate(155.13888888888889 47)"/><use xlink:href="#n" transform="matrix(1,0,0,1,690,725) translate(182.91666666666666 47)"/><use xlink:href="#o" transform="matrix(1,0,0,1,690,725) translate(77.63888888888889 71)"/><path d="M1072 520h188l-32 120h-188z" stroke="#000" stroke-width="2" fill="#fff"/><use xlink:href="#i" transform="matrix(1,0,0,1,1045,525) translate(20.416666666666657 47)"/><use xlink:href="#j" transform="matrix(1,0,0,1,1045,525) translate(85.97222222222221 47)"/><use xlink:href="#k" transform="matrix(1,0,0,1,1045,525) translate(108.52777777777777 47)"/><use xlink:href="#m" transform="matrix(1,0,0,1,1045,525) translate(128.47222222222223 47)"/><use xlink:href="#n" transform="matrix(1,0,0,1,1045,525) translate(156.25 47)"/><use xlink:href="#o" transform="matrix(1,0,0,1,1045,525) translate(67.63888888888889 71)"/><path d="M835.83 261v79.33" stroke="#000" stroke-width="2" fill="none"/><path d="M836.83 261h-2v-1h2zM835.83 340.33l-4.63-14.26h9.27z"/><path d="M836.56 341.33h-1.45l-5.28-16.26h12.03zm-4-14.26l3.27 10.03 3.26-10.03z"/><path d="M820 461v42.04" stroke="#000" stroke-width="2" fill="none"/><path d="M821 461h-2v-1h2zM820 503.04l-4.64-14.27h9.28z"/><path d="M820.83 503.72l-1.4.8-5.44-16.75h12zm-4.1-13.95L820 499.8l3.26-10.03z"/><path d="M820 461v42.04" stroke="#000" stroke-width="2" fill="none"/><path d="M820 503.04l-4.64-14.27h9.28z" stroke="#000" stroke-width="2"/><path d="M995.13 582.33H965v-2h30.13zm59.48 0h-30.12v-2h30.13zM965 582.33h-1.75l1.75-1-1.75-1H965z"/><path d="M1054.6 581.33l-14.26 4.64v-9.27z"/><path d="M1055.82 580.68l-.38 1.44-16.1 5.23v-12.03zm-14.48 3.9l10.03-3.25-10.03-3.26z"/><g><use xlink:href="#p" transform="matrix(1,0,0,1,995.1297497185793,570.5333333333334) translate(0 14.4)"/></g><path d="M826 719h-2v-18.03h2zm0-39.63h-2v-18.04h2zM826 661.33h-1l1-.57zm-1 0h-1v-.57z"/><path d="M825 719l-4.64-14.27h9.28z"/><path d="M825.73 720h-1.46L819 703.73h12zm-4-14.27l3.27 10.03 3.26-10.03z"/><g><use xlink:href="#q" transform="matrix(1,0,0,1,813.525,679.3666666666668) translate(0 14.4)"/></g><path d="M701 780H580V236.48h166.82" stroke="#000" stroke-width="2" fill="none"/><path d="M701 780v-1h.27zM746.82 236.48l-14.27 4.63v-9.26z"/><path d="M747.57 235.67l.58 1.43-16.6 5.4v-12.04zm-14.02 4.06l10.03-3.25-10.03-3.26z"/><path d="M1150 520V220H905" stroke="#000" stroke-width="2" fill="none"/><path/><path d="M919.27 224.64L905 220l14.27-4.64z"/><path d="M920.27 226l-15.33-4.97.06-1.03-.04-1.04 15.3-4.97zm-12.03-6l10.03 3.26v-6.52z"/><defs><path d="M135-143c-3-34-86-38-87 0 15 53 115 12 119 90S17 21 10-45l28-5c4 36 97 45 98 0-10-56-113-15-118-90-4-57 82-63 122-42 12 7 21 19 24 35" id="r"/><path d="M59-47c-2 24 18 29 38 22v24C64 9 27 4 27-40v-127H5v-23h24l9-43h21v43h35v23H59v120" id="s"/><path d="M141-36C126-15 110 5 73 4 37 3 15-17 15-53c-1-64 63-63 125-63 3-35-9-54-41-54-24 1-41 7-42 31l-33-3c5-37 33-52 76-52 45 0 72 20 72 64v82c-1 20 7 32 28 27v20c-31 9-61-2-59-35zM48-53c0 20 12 33 32 33 41-3 63-29 60-74-43 2-92-5-92 41" id="t"/><path d="M114-163C36-179 61-72 57 0H25l-1-190h30c1 12-1 29 2 39 6-27 23-49 58-41v29" id="u"/><g id="a"><use transform="matrix(0.06790123456790124,0,0,0.06790123456790124,0,0)" xlink:href="#r"/><use transform="matrix(0.06790123456790124,0,0,0.06790123456790124,12.222222222222223,0)" xlink:href="#s"/><use transform="matrix(0.06790123456790124,0,0,0.06790123456790124,19.01234567901235,0)" xlink:href="#t"/><use transform="matrix(0.06790123456790124,0,0,0.06790123456790124,32.592592592592595,0)" xlink:href="#u"/><use transform="matrix(0.06790123456790124,0,0,0.06790123456790124,40.67283950617284,0)" xlink:href="#s"/></g><path d="M33 0v-248h34V0H33" id="v"/><path d="M117-194c89-4 53 116 60 194h-32v-121c0-31-8-49-39-48C34-167 62-67 57 0H25l-1-190h30c1 10-1 24 2 32 11-22 29-35 61-36" id="w"/><path d="M115-194c55 1 70 41 70 98S169 2 115 4C84 4 66-9 55-30l1 105H24l-1-265h31l2 30c10-21 28-34 59-34zm-8 174c40 0 45-34 45-75s-6-73-45-74c-42 0-51 32-51 76 0 43 10 73 51 73" id="x"/><path d="M84 4C-5 8 30-112 23-190h32v120c0 31 7 50 39 49 72-2 45-101 50-169h31l1 190h-30c-1-10 1-25-2-33-11 22-28 36-60 37" id="y"/><g id="b"><use transform="matrix(0.06790123456790124,0,0,0.06790123456790124,0,0)" xlink:href="#v"/><use transform="matrix(0.06790123456790124,0,0,0.06790123456790124,6.790123456790124,0)" xlink:href="#w"/><use transform="matrix(0.06790123456790124,0,0,0.06790123456790124,20.370370370370374,0)" xlink:href="#x"/><use transform="matrix(0.06790123456790124,0,0,0.06790123456790124,33.95061728395062,0)" xlink:href="#y"/><use transform="matrix(0.06790123456790124,0,0,0.06790123456790124,47.530864197530875,0)" xlink:href="#s"/></g><use transform="matrix(0.06790123456790124,0,0,0.06790123456790124,0,0)" xlink:href="#t" id="c"/><path d="M210-169c-67 3-38 105-44 169h-31v-121c0-29-5-50-35-48C34-165 62-65 56 0H25l-1-190h30c1 10-1 24 2 32 10-44 99-50 107 0 11-21 27-35 58-36 85-2 47 119 55 194h-31v-121c0-29-5-49-35-48" id="z"/><path d="M115-194c53 0 69 39 70 98 0 66-23 100-70 100C84 3 66-7 56-30L54 0H23l1-261h32v101c10-23 28-34 59-34zm-8 174c40 0 45-34 45-75 0-40-5-75-45-74-42 0-51 32-51 76 0 43 10 73 51 73" id="A"/><path d="M100-194c63 0 86 42 84 106H49c0 40 14 67 53 68 26 1 43-12 49-29l28 8c-11 28-37 45-77 45C44 4 14-33 15-96c1-61 26-98 85-98zm52 81c6-60-76-77-97-28-3 7-6 17-6 28h103" id="B"/><g id="d"><use transform="matrix(0.06790123456790124,0,0,0.06790123456790124,0,0)" xlink:href="#w"/><use transform="matrix(0.06790123456790124,0,0,0.06790123456790124,13.580246913580249,0)" xlink:href="#y"/><use transform="matrix(0.06790123456790124,0,0,0.06790123456790124,27.160493827160497,0)" xlink:href="#z"/><use transform="matrix(0.06790123456790124,0,0,0.06790123456790124,47.46296296296297,0)" xlink:href="#A"/><use transform="matrix(0.06790123456790124,0,0,0.06790123456790124,61.043209876543216,0)" xlink:href="#B"/><use transform="matrix(0.06790123456790124,0,0,0.06790123456790124,74.62345679012347,0)" xlink:href="#u"/></g><g id="e"><use transform="matrix(0.06790123456790124,0,0,0.06790123456790124,0,0)" xlink:href="#v"/><use transform="matrix(0.06790123456790124,0,0,0.06790123456790124,6.790123456790124,0)" xlink:href="#r"/></g><path d="M106-169C34-169 62-67 57 0H25v-261h32l-1 103c12-21 28-36 61-36 89 0 53 116 60 194h-32v-121c2-32-8-49-39-48" id="C"/><g id="f"><use transform="matrix(0.06790123456790124,0,0,0.06790123456790124,0,0)" xlink:href="#s"/><use transform="matrix(0.06790123456790124,0,0,0.06790123456790124,6.790123456790124,0)" xlink:href="#C"/><use transform="matrix(0.06790123456790124,0,0,0.06790123456790124,20.370370370370374,0)" xlink:href="#B"/></g><g id="g"><use transform="matrix(0.06790123456790124,0,0,0.06790123456790124,0,0)" xlink:href="#w"/><use transform="matrix(0.06790123456790124,0,0,0.06790123456790124,13.580246913580249,0)" xlink:href="#y"/><use transform="matrix(0.06790123456790124,0,0,0.06790123456790124,27.160493827160497,0)" xlink:href="#z"/><use transform="matrix(0.06790123456790124,0,0,0.06790123456790124,47.46296296296297,0)" xlink:href="#A"/><use transform="matrix(0.06790123456790124,0,0,0.06790123456790124,61.043209876543216,0)" xlink:href="#B"/><use transform="matrix(0.06790123456790124,0,0,0.06790123456790124,74.62345679012347,0)" xlink:href="#u"/></g><path d="M100-194c62-1 85 37 85 99 1 63-27 99-86 99S16-35 15-95c0-66 28-99 85-99zM99-20c44 1 53-31 53-75 0-43-8-75-51-75s-53 32-53 75 10 74 51 75" id="D"/><path d="M85-194c31 0 48 13 60 33l-1-100h32l1 261h-30c-2-10 0-23-3-31C134-8 116 4 85 4 32 4 16-35 15-94c0-66 23-100 70-100zm9 24c-40 0-46 34-46 75 0 40 6 74 45 74 42 0 51-32 51-76 0-42-9-74-50-73" id="E"/><path d="M103-251c84 0 111 97 45 133-19 10-37 24-39 52H78c0-63 77-55 77-114 0-30-21-42-52-43-32 0-53 17-56 46l-32-2c7-45 34-72 88-72zM77 0v-35h34V0H77" id="F"/><g id="h"><use transform="matrix(0.06790123456790124,0,0,0.06790123456790124,0,0)" xlink:href="#D"/><use transform="matrix(0.06790123456790124,0,0,0.06790123456790124,13.580246913580249,0)" xlink:href="#E"/><use transform="matrix(0.06790123456790124,0,0,0.06790123456790124,27.160493827160497,0)" xlink:href="#E"/><use transform="matrix(0.06790123456790124,0,0,0.06790123456790124,40.74074074074075,0)" xlink:href="#F"/></g><path d="M140-251c81 0 123 46 123 126C263-46 219 4 140 4 59 4 17-45 17-125s42-126 123-126zm0 227c63 0 89-41 89-101s-29-99-89-99c-61 0-89 39-89 99S79-25 140-24" id="G"/><g id="i"><use transform="matrix(0.05555555555555555,0,0,0.05555555555555555,0,0)" xlink:href="#G"/><use transform="matrix(0.05555555555555555,0,0,0.05555555555555555,15.555555555555555,0)" xlink:href="#y"/><use transform="matrix(0.05555555555555555,0,0,0.05555555555555555,26.666666666666664,0)" xlink:href="#s"/><use transform="matrix(0.05555555555555555,0,0,0.05555555555555555,32.22222222222222,0)" xlink:href="#x"/><use transform="matrix(0.05555555555555555,0,0,0.05555555555555555,43.33333333333333,0)" xlink:href="#y"/><use transform="matrix(0.05555555555555555,0,0,0.05555555555555555,54.44444444444444,0)" xlink:href="#s"/></g><path d="M109-170H84l-4-78h32zm-65 0H19l-4-78h33" id="H"/><path d="M24-231v-30h32v30H24zM24 0v-190h32V0H24" id="I"/><g id="j"><use transform="matrix(0.05555555555555555,0,0,0.05555555555555555,0,0)" xlink:href="#H"/><use transform="matrix(0.05555555555555555,0,0,0.05555555555555555,7.055555555555555,0)" xlink:href="#I"/><use transform="matrix(0.05555555555555555,0,0,0.05555555555555555,11.444444444444443,0)" xlink:href="#s"/></g><g id="k"><use transform="matrix(0.05555555555555555,0,0,0.05555555555555555,0,0)" xlink:href="#I"/><use transform="matrix(0.05555555555555555,0,0,0.05555555555555555,4.388888888888888,0)" xlink:href="#r"/></g><g id="l"><use transform="matrix(0.05555555555555555,0,0,0.05555555555555555,0,0)" xlink:href="#w"/><use transform="matrix(0.05555555555555555,0,0,0.05555555555555555,11.11111111111111,0)" xlink:href="#D"/><use transform="matrix(0.05555555555555555,0,0,0.05555555555555555,22.22222222222222,0)" xlink:href="#s"/></g><g id="m"><use transform="matrix(0.05555555555555555,0,0,0.05555555555555555,0,0)" xlink:href="#t"/><use transform="matrix(0.05555555555555555,0,0,0.05555555555555555,11.11111111111111,0)" xlink:href="#w"/></g><g id="n"><use transform="matrix(0.05555555555555555,0,0,0.05555555555555555,0,0)" xlink:href="#D"/><use transform="matrix(0.05555555555555555,0,0,0.05555555555555555,11.11111111111111,0)" xlink:href="#E"/><use transform="matrix(0.05555555555555555,0,0,0.05555555555555555,22.22222222222222,0)" xlink:href="#E"/></g><g id="o"><use transform="matrix(0.05555555555555555,0,0,0.05555555555555555,0,0)" xlink:href="#w"/><use transform="matrix(0.05555555555555555,0,0,0.05555555555555555,11.11111111111111,0)" xlink:href="#y"/><use transform="matrix(0.05555555555555555,0,0,0.05555555555555555,22.22222222222222,0)" xlink:href="#z"/><use transform="matrix(0.05555555555555555,0,0,0.05555555555555555,38.83333333333333,0)" xlink:href="#A"/><use transform="matrix(0.05555555555555555,0,0,0.05555555555555555,49.94444444444444,0)" xlink:href="#B"/><use transform="matrix(0.05555555555555555,0,0,0.05555555555555555,61.05555555555555,0)" xlink:href="#u"/><use transform="matrix(0.05555555555555555,0,0,0.05555555555555555,67.66666666666667,0)" xlink:href="#H"/></g><path d="M137-103V0h-34v-103L8-248h37l75 118 75-118h37" id="J"/><g id="p"><use transform="matrix(0.05,0,0,0.05,0,0)" xlink:href="#J"/><use transform="matrix(0.05,0,0,0.05,10.35,0)" xlink:href="#B"/><use transform="matrix(0.05,0,0,0.05,20.35,0)" xlink:href="#r"/></g><path d="M190 0L58-211 59 0H30v-248h39L202-35l-2-213h31V0h-41" id="K"/><g id="q"><use transform="matrix(0.05,0,0,0.05,0,0)" xlink:href="#K"/><use transform="matrix(0.05,0,0,0.05,12.950000000000001,0)" xlink:href="#D"/></g></defs></g></svg>